<mxfile host="app.diagrams.net" agent="Mozilla/5.0 (X11; Linux x86_64) AppleWebKit/537.36 (KHTML, like Gecko) Chrome/129.0.0.0 Safari/537.36" version="24.7.17">
  <diagram name="Page-1" id="3jQ6PRLKA-HxieFReGls">
    <mxGraphModel dx="1197" dy="829" grid="0" gridSize="10" guides="1" tooltips="1" connect="1" arrows="1" fold="1" page="0" pageScale="1" pageWidth="850" pageHeight="1100" math="0" shadow="0">
      <root>
        <mxCell id="0" />
        <mxCell id="1" parent="0" />
        <mxCell id="J_XzyRFfxgXy9JG0zXE4-11" value="" style="image;aspect=fixed;html=1;points=[];align=center;fontSize=12;image=img/lib/azure2/management_governance/User_Privacy.svg;" vertex="1" parent="1">
          <mxGeometry x="-5" y="-309" width="64" height="68" as="geometry" />
        </mxCell>
        <mxCell id="J_XzyRFfxgXy9JG0zXE4-14" value="" style="endArrow=classic;html=1;rounded=0;fontSize=12;startSize=8;endSize=8;curved=1;" edge="1" parent="1">
          <mxGeometry width="50" height="50" relative="1" as="geometry">
            <mxPoint x="25.5" y="-243" as="sourcePoint" />
            <mxPoint x="26.618644067796595" y="-155" as="targetPoint" />
          </mxGeometry>
        </mxCell>
        <mxCell id="J_XzyRFfxgXy9JG0zXE4-22" value="" style="strokeWidth=2;html=1;shape=mxgraph.flowchart.annotation_2;align=left;labelPosition=right;pointerEvents=1;rotation=90;" vertex="1" parent="1">
          <mxGeometry x="-33.5" y="-124" width="121" height="126" as="geometry" />
        </mxCell>
        <mxCell id="J_XzyRFfxgXy9JG0zXE4-34" value="" style="image;aspect=fixed;perimeter=ellipsePerimeter;html=1;align=center;shadow=0;dashed=0;spacingTop=3;image=img/lib/active_directory/databases.svg;" vertex="1" parent="1">
          <mxGeometry x="67" y="2" width="40.82" height="40" as="geometry" />
        </mxCell>
        <mxCell id="J_XzyRFfxgXy9JG0zXE4-41" value="" style="shape=image;html=1;verticalAlign=top;verticalLabelPosition=bottom;labelBackgroundColor=#ffffff;imageAspect=0;aspect=fixed;image=https://cdn0.iconfinder.com/data/icons/job-seeker/256/target_job_seeker_employee_unemployee_work-128.png" vertex="1" parent="1">
          <mxGeometry x="-64" y="-6" width="59" height="59" as="geometry" />
        </mxCell>
        <mxCell id="J_XzyRFfxgXy9JG0zXE4-42" value="" style="shadow=0;dashed=0;html=1;strokeColor=none;fillColor=#4495D1;labelPosition=center;verticalLabelPosition=bottom;verticalAlign=top;align=center;outlineConnect=0;shape=mxgraph.veeam.2d.web_ui;" vertex="1" parent="1">
          <mxGeometry x="4.599999999999994" y="-154" width="44.8" height="44.8" as="geometry" />
        </mxCell>
        <mxCell id="J_XzyRFfxgXy9JG0zXE4-44" style="edgeStyle=none;curved=1;rounded=0;orthogonalLoop=1;jettySize=auto;html=1;exitX=0.5;exitY=1;exitDx=0;exitDy=0;fontSize=12;startSize=8;endSize=8;" edge="1" parent="1" source="J_XzyRFfxgXy9JG0zXE4-34" target="J_XzyRFfxgXy9JG0zXE4-34">
          <mxGeometry relative="1" as="geometry" />
        </mxCell>
        <mxCell id="J_XzyRFfxgXy9JG0zXE4-46" value="" style="strokeWidth=2;html=1;shape=mxgraph.flowchart.annotation_1;align=left;pointerEvents=1;rotation=90;" vertex="1" parent="1">
          <mxGeometry x="-70" y="-114" width="71" height="522" as="geometry" />
        </mxCell>
        <mxCell id="J_XzyRFfxgXy9JG0zXE4-49" value="" style="shape=partialRectangle;whiteSpace=wrap;html=1;top=0;bottom=0;fillColor=none;" vertex="1" parent="1">
          <mxGeometry x="-178" y="114" width="268" height="68" as="geometry" />
        </mxCell>
        <mxCell id="J_XzyRFfxgXy9JG0zXE4-50" value="" style="endArrow=none;html=1;rounded=0;fontSize=12;startSize=8;endSize=8;curved=1;entryX=0.5;entryY=1;entryDx=0;entryDy=0;" edge="1" parent="1" target="J_XzyRFfxgXy9JG0zXE4-41">
          <mxGeometry width="50" height="50" relative="1" as="geometry">
            <mxPoint x="-35" y="187" as="sourcePoint" />
            <mxPoint x="-33.5" y="114" as="targetPoint" />
          </mxGeometry>
        </mxCell>
        <mxCell id="J_XzyRFfxgXy9JG0zXE4-63" value="" style="sketch=0;html=1;aspect=fixed;strokeColor=none;shadow=0;fillColor=#3B8DF1;verticalAlign=top;labelPosition=center;verticalLabelPosition=bottom;shape=mxgraph.gcp2.cloud_information" vertex="1" parent="1">
          <mxGeometry x="-323" y="182" width="46.84" height="37" as="geometry" />
        </mxCell>
        <mxCell id="J_XzyRFfxgXy9JG0zXE4-67" value="" style="sketch=0;points=[[0,0,0],[0.25,0,0],[0.5,0,0],[0.75,0,0],[1,0,0],[0,1,0],[0.25,1,0],[0.5,1,0],[0.75,1,0],[1,1,0],[0,0.25,0],[0,0.5,0],[0,0.75,0],[1,0.25,0],[1,0.5,0],[1,0.75,0]];outlineConnect=0;fontColor=#232F3E;fillColor=#01A88D;strokeColor=#ffffff;dashed=0;verticalLabelPosition=bottom;verticalAlign=top;align=center;html=1;fontSize=12;fontStyle=0;aspect=fixed;shape=mxgraph.aws4.resourceIcon;resIcon=mxgraph.aws4.application_discovery_service;" vertex="1" parent="1">
          <mxGeometry x="-57" y="182" width="40" height="40" as="geometry" />
        </mxCell>
      </root>
    </mxGraphModel>
  </diagram>
</mxfile>
